<?xml version="1.0" standalone="no"?>
<!DOCTYPE svg PUBLIC "-//W3C//DTD SVG 20010904//EN"
 "http://www.w3.org/TR/2001/REC-SVG-20010904/DTD/svg10.dtd">
<svg version="1.0" xmlns="http://www.w3.org/2000/svg"
 width="252.000000pt" height="177.000000pt" viewBox="0 0 252.000000 177.000000"
 preserveAspectRatio="xMidYMid meet">

<g transform="translate(0.000000,177.000000) scale(0.100000,-0.100000)"
fill="#000000" stroke="none">
<path d="M1080 1150 c0 -160 4 -250 10 -250 6 0 10 90 10 250 0 160 -4 250
-10 250 -6 0 -10 -90 -10 -250z"/>
<path d="M1130 1150 c0 -160 4 -250 10 -250 6 0 10 90 10 250 0 160 -4 250
-10 250 -6 0 -10 -90 -10 -250z"/>
<path d="M1170 1150 c0 -160 4 -250 10 -250 6 0 10 90 10 250 0 160 -4 250
-10 250 -6 0 -10 -90 -10 -250z"/>
<path d="M1210 1156 c0 -146 4 -247 10 -251 5 -3 10 29 12 82 l3 88 103 3
c133 4 135 22 2 22 -60 0 -100 4 -100 10 0 6 40 10 100 10 60 0 100 4 100 10
0 6 -40 10 -99 10 -56 0 -103 4 -106 10 -4 6 32 10 99 10 64 0 106 4 106 10 0
6 -36 10 -89 10 -118 0 -121 2 -121 60 0 59 3 60 126 60 56 0 94 4 94 10 0 6
-44 10 -111 10 -71 0 -108 4 -104 10 3 6 52 10 111 10 63 0 104 4 104 10 0 6
-42 10 -105 10 -63 0 -105 4 -105 10 0 6 42 10 105 10 63 0 105 4 105 10 0 6
-47 10 -120 10 l-120 0 0 -244z"/>
<path d="M1970 550 c0 -109 2 -130 15 -130 13 0 15 21 15 130 0 109 -2 130
-15 130 -13 0 -15 -21 -15 -130z"/>
<path d="M180 546 c0 -120 1 -126 20 -126 20 0 20 5 18 122 -3 108 -5 123 -20
126 -16 3 -18 -8 -18 -122z"/>
<path d="M240 655 c0 -11 12 -15 45 -15 33 0 45 4 45 15 0 11 -12 15 -45 15
-33 0 -45 -4 -45 -15z"/>
<path d="M1570 544 c0 -114 2 -125 18 -122 15 3 17 17 20 103 3 113 -2 145
-23 145 -12 0 -15 -21 -15 -126z"/>
<path d="M1627 664 c-17 -17 -4 -24 44 -24 36 0 49 4 47 13 -5 13 -79 22 -91
11z"/>
<path d="M590 635 c0 -14 -4 -25 -10 -25 -5 0 -10 -7 -10 -15 0 -8 5 -15 10
-15 6 0 10 -24 10 -54 0 -79 13 -106 50 -106 35 0 38 10 10 28 -16 10 -20 23
-20 72 0 47 3 60 15 60 8 0 15 7 15 15 0 8 -7 15 -15 15 -9 0 -15 9 -15 25 0
18 -5 25 -20 25 -15 0 -20 -7 -20 -25z"/>
<path d="M413 600 c-37 -15 -26 -29 17 -23 l40 6 0 -67 c0 -37 -4 -66 -10 -66
-5 0 -10 -7 -10 -15 0 -12 4 -14 19 -5 14 7 22 7 26 0 15 -24 22 5 18 72 -6
97 -35 124 -100 98z"/>
<path d="M1080 597 c-28 -14 -50 -51 -50 -85 0 -41 37 -91 68 -92 17 0 15 27
-2 33 -8 3 -18 22 -22 42 -5 29 -2 43 15 66 28 37 24 52 -9 36z"/>
<path d="M1124 599 c-3 -6 3 -19 15 -30 27 -25 28 -78 1 -112 -11 -14 -20 -28
-20 -31 0 -15 33 -4 55 19 27 27 33 76 14 118 -13 29 -55 52 -65 36z"/>
<path d="M1260 532 c0 -89 16 -116 64 -110 33 4 35 21 4 28 -21 5 -23 13 -28
80 -4 61 -8 75 -22 78 -16 3 -18 -6 -18 -76z"/>
<path d="M1374 597 c-3 -8 -4 -49 -2 -93 3 -66 6 -79 21 -82 15 -3 17 6 17 92
0 80 -3 96 -15 96 -9 0 -18 -6 -21 -13z"/>
<path d="M1798 603 c-34 -9 -20 -30 20 -29 l37 1 3 -54 c2 -30 -2 -59 -7 -64
-16 -16 -14 -30 3 -24 7 3 18 1 24 -5 21 -21 27 3 21 78 -8 97 -28 116 -101
97z"/>
<path d="M2046 576 c-14 -19 -26 -46 -26 -61 0 -32 48 -95 73 -95 23 0 21 9
-13 50 -17 19 -30 38 -30 43 0 4 11 25 25 45 29 42 31 52 11 52 -7 0 -25 -15
-40 -34z"/>
<path d="M2191 582 c-44 -44 -40 -112 8 -149 29 -22 101 -14 101 12 0 9 -11
12 -38 8 -41 -5 -58 7 -62 42 -4 39 0 55 21 76 15 15 18 24 11 31 -8 8 -20 1
-41 -20z"/>
<path d="M2255 599 c-4 -6 2 -19 14 -30 30 -28 26 -39 -14 -39 -24 0 -35 -5
-35 -15 0 -12 13 -15 56 -15 l57 0 -7 32 c-9 48 -56 92 -71 67z"/>
<path d="M740 580 c-30 -30 -28 -103 5 -135 13 -14 29 -25 35 -25 15 0 12 26
-5 40 -19 16 -19 80 0 106 8 10 15 22 15 27 0 14 -30 7 -50 -13z"/>
<path d="M810 591 c0 -5 6 -14 14 -20 27 -23 30 -70 7 -102 -41 -55 -11 -71
34 -17 22 26 26 39 22 71 -3 21 -13 47 -23 58 -17 19 -54 26 -54 10z"/>
<path d="M240 545 c0 -11 11 -15 40 -15 29 0 40 4 40 15 0 11 -11 15 -40 15
-29 0 -40 -4 -40 -15z"/>
<path d="M1627 554 c-16 -17 -4 -24 39 -24 32 0 44 4 42 13 -5 13 -69 22 -81
11z"/>
<path d="M390 510 c-24 -24 -25 -38 -4 -68 17 -25 44 -29 44 -7 0 8 -4 15 -10
15 -5 0 -10 11 -10 25 0 18 7 26 25 31 14 3 25 10 25 15 0 17 -50 9 -70 -11z"/>
<path d="M1777 512 c-32 -35 -16 -92 25 -92 19 0 24 15 8 25 -19 11 -11 57 10
62 11 3 20 9 20 14 0 16 -47 9 -63 -9z"/>
</g>
</svg>
