<svg width="60" height="82" viewBox="0 0 60 82" fill="none" xmlns="http://www.w3.org/2000/svg">
<path d="M0 41.4595C0 67.4054 0.648649 82 1.62162 82C2.59459 82 3.24324 67.4054 3.24324 41.4595C3.24324 15.5135 2.59459 0.918922 1.62162 0.918922C0.648649 0.918922 0 15.5135 0 41.4595Z" fill="black"/>
<path d="M8.10809 41.4595C8.10809 67.4054 8.75674 82 9.72971 82C10.7027 82 11.3513 67.4054 11.3513 41.4595C11.3513 15.5135 10.7027 0.918922 9.72971 0.918922C8.75674 0.918922 8.10809 15.5135 8.10809 41.4595Z" fill="black"/>
<path d="M14.5946 41.4595C14.5946 67.4054 15.2433 82 16.2162 82C17.1892 82 17.8378 67.4054 17.8378 41.4595C17.8378 15.5135 17.1892 0.918922 16.2162 0.918922C15.2433 0.918922 14.5946 15.5135 14.5946 41.4595Z" fill="black"/>
<path d="M21.0811 40.1848C21.0811 63.8604 21.7297 80.2388 22.7027 80.8875C23.5135 81.3739 24.3243 76.1848 24.6486 67.5902L25.1351 53.3199L41.8378 52.8334C63.4054 52.1848 63.7297 49.2658 42.1621 49.2658C32.4324 49.2658 25.9459 48.6172 25.9459 47.6442C25.9459 46.6712 32.4324 46.0226 42.1621 46.0226C51.8919 46.0226 58.3783 45.3739 58.3783 44.401C58.3783 43.428 51.8919 42.7794 42.3243 42.7794C33.2432 42.7794 25.6216 42.1307 25.1351 41.1577C24.4865 40.1848 30.3243 39.5361 41.1892 39.5361C51.5675 39.5361 58.3783 38.8875 58.3783 37.9145C58.3783 36.9415 52.5405 36.2929 43.9459 36.2929C24.8108 36.2929 24.3243 35.9685 24.3243 26.5631C24.3243 16.9956 24.8108 16.8334 44.7567 16.8334C53.8378 16.8334 60 16.1848 60 15.2118C60 14.2388 52.8648 13.5902 42 13.5902C30.4865 13.5902 24.4865 12.9415 25.1351 11.9685C25.6216 10.9956 33.5675 10.3469 43.1351 10.3469C53.3513 10.3469 60 9.69827 60 8.7253C60 7.75232 53.1892 7.10368 42.9729 7.10368C32.7567 7.10368 25.9459 6.45502 25.9459 5.48205C25.9459 4.50908 32.7567 3.86043 42.9729 3.86043C53.1892 3.86043 60 3.21178 60 2.23881C60 1.26584 52.3784 0.617188 40.5405 0.617188H21.0811V40.1848Z" fill="black"/>
</svg>
